<svg width="24" height="25" viewBox="0 0 24 25" xmlns="http://www.w3.org/2000/svg" xmlns:xlink="http://www.w3.org/1999/xlink">
    <defs>
        <path d="M21 18a1 1 0 0 1 0 2H3a1 1 0 0 1 0-2h18zm0-7a1 1 0 0 1 0 2H3a1 1 0 0 1 0-2h18zm0-7a1 1 0 0 1 0 2H3a1 1 0 1 1 0-2h18z" id="a"/>
    </defs>
    <g transform="translate(0 .885)" fill="none" fill-rule="evenodd">
        <mask id="b" fill="#fff">
            <use xlink:href="#a"/>
        </mask>
        <g mask="url(#b)" fill="#1E1E1E">
            <path d="M0 0h24v24H0z"/>
        </g>
    </g>
</svg>
