<svg width="317" height="54" viewBox="0 0 317 54" xmlns="http://www.w3.org/2000/svg">
    <g fill="none" fill-rule="evenodd">
        <path fill="#1E1E1E" d="m76.835 0-14.47 54h122.97l14.47-54z"/>
        <path fill="#76B900" d="m199.805 0-14.47 54h2.708L202.51 0zM0 0v54h62.365l14.47-54z"/>
        <path d="m49.6 37.197 1.395 3.818h-2.84l1.445-3.818zm6.467 5.813h-.202v.313h.19c.085.005.16-.06.165-.145v-.01a.157.157 0 0 0-.158-.148l.005-.01zm.16.988-.22-.47h-.142v.47h-.25v-1.213h.5a.385.385 0 0 1 .402.367v.015c0 .144-.09.271-.225.32l.25.5-.315.01zm-.205-1.526a.92.92 0 1 0 .905.935v-.014a.895.895 0 0 0-.91-.91l.005-.01zm0 2.06a1.14 1.14 0 1 1 1.14-1.14 1.14 1.14 0 0 1-1.13 1.15h-.015l.005-.01zm-7.917-8.82-3.223 8.153h2.273l.5-1.44h3.807l.48 1.44h2.468l-3.25-8.15-3.055-.003zm-6.458 8.15h2.305V35.72h-2.305v8.142zm-16-8.152-1.922 6.462-1.843-6.462h-2.485l2.63 8.155h3.32l2.65-8.153-2.35-.002zm9.313 1.775h1c1.437 0 2.367.645 2.367 2.318 0 1.672-.93 2.32-2.367 2.32h-1v-4.638zm-2.285-1.775v8.155h3.737c2 0 2.64-.33 3.343-1.073.5-.52.817-1.665.817-2.915 0-1.145-.272-2.167-.75-2.805-.852-1.137-2.082-1.36-3.917-1.36l-3.23-.002zm-21.825.008v8.147h2.322v-6.2h1.8c.598 0 1.023.15 1.31.455.363.39.5 1.015.5 2.16v3.585h2.25v-4.5c0-3.22-2.055-3.655-4.062-3.655h-4.12v.008zm18.117 8.147h2.305v-8.148h-2.305v8.148zM17.05 19.493a12.382 12.382 0 0 1 8.88-4.825V13.08c-6.552.528-12.23 6.078-12.23 6.078S16.915 28.45 25.93 29.3v-1.685c-6.622-.842-8.887-8.132-8.887-8.132l.007.01zm8.863 4.76v1.542c-5-.89-6.388-6.087-6.388-6.087a10.81 10.81 0 0 1 6.398-3.093v1.695c-2.093-.25-3.728 1.703-3.728 1.703s.918 3.292 3.735 4.25l-.017-.01zm0-14.108v2.925c.192-.015.385-.027.577-.032 7.453-.25 12.308 6.11 12.308 6.11s-5.578 6.78-11.385 6.78a8.382 8.382 0 0 1-1.5-.133v1.82c.414.053.832.08 1.25.08 5.407 0 9.317-2.75 13.102-6.027.628.5 3.198 1.725 3.725 2.25-3.6 3.015-11.987 5.442-16.75 5.442-.46 0-.9-.027-1.332-.07v2.543h20.547V10.145H25.913zm.01 6.47v-1.957c.19-.015.382-.025.577-.03 5.36-.168 8.875 4.605 8.875 4.605s-3.797 5.272-7.867 5.272a4.977 4.977 0 0 1-1.585-.25V18.31c2.087.25 2.5 1.175 3.75 3.265l2.79-2.352s-2.038-2.67-5.47-2.67c-.361.002-.722.023-1.08.062h.01zM87.675 28.765l6.5 9.555v-9.555h2.785v14.388h-2.872l-6.498-9.538v9.535h-2.785V28.765zM107.817 40.6a.713.713 0 0 0 .718-.708v-7.835a.73.73 0 0 0-.71-.75h-4.985a.73.73 0 0 0-.718.743v7.832a.71.71 0 0 0 .703.718h4.992zm-8.48-9.43a2.403 2.403 0 0 1 2.385-2.405h7.213a2.403 2.403 0 0 1 2.385 2.405v9.597a2.382 2.382 0 0 1-2.38 2.385h-7.218a2.382 2.382 0 0 1-2.385-2.38V31.17zM121.502 28.765h2.363l2.97 9.795 2.632-9.795h2.865l-4.34 14.388h-2.442l-2.935-9.27-2.75 9.27h-2.45l-4.613-14.388h3.118l2.8 9.795zM137.033 28.765h.262v1.975h-.25v-1.537l-.578.985h-.214l-.543-.938v1.5h-.25v-1.975h.25l.665 1.148.658-1.158zm-1.885 0v.228h-.643v1.75h-.25v-1.75h-.613v-.228h1.506zM84.805 13.248a2.405 2.405 0 0 1 2.405-2.405h9.113v2.595h-7.958a.75.75 0 0 0-.75.717v6.75a.75.75 0 0 0 .21.5l1 1c.139.14.33.217.528.21h3.86a.71.71 0 0 0 .717-.702V19.323h-3.365v-2.595h6.25v6.117a2.398 2.398 0 0 1-2.402 2.383h-6.42a.733.733 0 0 1-.528-.21l-2.447-2.448a.732.732 0 0 1-.213-.5v-8.822zM102.085 13.395v3.375h5.842v2.553h-5.842v3.352h7.28v2.553H99.28V10.843h10.085v2.552zM114.262 25.228h-2.805V10.843h10.083v2.552h-7.278v3.375h5.853v2.553h-5.853zM132.01 22.675a.71.71 0 0 0 .717-.702v-7.84a.73.73 0 0 0-.717-.738h-4.978a.727.727 0 0 0-.717.737v7.826a.71.71 0 0 0 .702.717H132.01zm-8.48-9.427a2.4 2.4 0 0 1 2.385-2.405h7.213a2.4 2.4 0 0 1 2.385 2.405v9.597a2.383 2.383 0 0 1-2.383 2.383h-7.215a2.382 2.382 0 0 1-2.385-2.38v-9.6zM140.668 16.813h4.697a.71.71 0 0 0 .717-.718v-1.962a.727.727 0 0 0-.717-.738h-4.687l-.01 3.418zm9.197 8.415h-3l-3.55-5.863h-2.637v5.863h-2.786V10.841h8.628a2.402 2.402 0 0 1 2.405 2.4v3.718a2.405 2.405 0 0 1-2.405 2.405h-.155l3.5 5.863zM160.965 13.395h-6.1a.725.725 0 0 0-.718.718v7.845a.71.71 0 0 0 .703.717H160.965v2.553h-7.193a2.398 2.398 0 0 1-2.405-2.383v-9.597a2.402 2.402 0 0 1 2.4-2.405H160.965v2.552zM166.072 13.395v3.375h5.843v2.553h-5.843v3.352h7.278v2.553h-10.083V10.843h10.083v2.552z" fill="#FFF"/>
        <path d="M220.59 8.477c0-1.317-1.007-1.74-2.048-1.74h-1.334v3.48h1.334c1.04 0 2.049-.406 2.049-1.74m2.13 0c0 2.18-1.447 3.724-4.13 3.724h-1.383v3.708c0 .146-.097.244-.244.244h-1.74c-.146 0-.243-.098-.243-.244V5.014c0-.147.097-.244.243-.244h3.367c2.683 0 4.13 1.545 4.13 3.707M233.633 10.51c0-2.098-1.562-3.691-3.594-3.691-2.033 0-3.594 1.593-3.594 3.691 0 2.082 1.561 3.675 3.594 3.675 2.032 0 3.594-1.593 3.594-3.675m-9.449 0a5.854 5.854 0 1 1 11.709 0 5.85 5.85 0 0 1-5.854 5.854 5.85 5.85 0 0 1-5.855-5.854M253.423 5.046l-3.464 10.912c-.049.13-.179.195-.309.195h-1.724c-.13 0-.244-.065-.276-.195l-2.635-7.855-2.634 7.855a.278.278 0 0 1-.276.195h-1.724c-.13 0-.26-.065-.293-.195L236.64 5.046c-.065-.163.017-.276.195-.276h1.806c.13 0 .227.048.276.195l2.358 8.26 2.651-8.26a.223.223 0 0 1 .13-.163.306.306 0 0 1 .13-.032h1.659c.065 0 .114.016.146.032.049.033.081.081.114.163l2.65 8.26 2.391-8.26c.033-.147.147-.195.277-.195h1.805c.179 0 .244.113.195.276M261.634 14.43v1.48c0 .146-.098.243-.244.243h-6c-.147 0-.244-.097-.244-.244V5.014c0-.147.097-.244.243-.244h5.985c.146 0 .244.097.244.244v1.48c0 .146-.098.243-.244.243h-4v2.57h3.756c.146 0 .244.097.244.244v1.48c0 .146-.098.243-.244.243h-3.757v2.911h4.017c.146 0 .244.098.244.244M266.057 10.217h1.333c1.041 0 2.05-.406 2.05-1.74 0-1.317-1.009-1.74-2.05-1.74h-1.333v3.48zm5.546 5.936h-1.855c-.13 0-.227-.049-.292-.163L267 12.201h-.943v3.708c0 .147-.098.244-.244.244h-1.74c-.146 0-.244-.097-.244-.244V5.014c0-.147.098-.244.244-.244h3.366c2.683 0 4.131 1.545 4.131 3.707 0 1.643-.83 2.928-2.39 3.464l2.585 3.92c.114.178.033.292-.162.292zM280.253 14.43v1.48c0 .146-.098.243-.244.243h-6c-.147 0-.244-.097-.244-.244V5.014c0-.147.097-.244.243-.244h5.985c.146 0 .244.097.244.244v1.48c0 .146-.098.243-.244.243h-4v2.57h3.756c.146 0 .244.097.244.244v1.48c0 .146-.098.243-.244.243h-3.757v2.911h4.017c.146 0 .244.098.244.244M289.603 10.461c0-2.341-1.236-3.724-3.708-3.724h-1.22v7.448h1.22c2.472 0 3.708-1.382 3.708-3.724m2.26 0c0 3.172-2.065 5.692-5.968 5.692h-3.203c-.147 0-.244-.097-.244-.244V5.014c0-.147.097-.244.244-.244h3.203c3.903 0 5.968 2.52 5.968 5.691M304.368 12.624c0-1.024-.715-1.528-1.903-1.528h-1.951v3.09h1.951c1.188 0 1.903-.488 1.903-1.562m-2.18-5.887h-1.674v2.521h1.675c.91 0 1.496-.423 1.496-1.333 0-.862-.602-1.188-1.496-1.188m4.407 6.131c0 2.147-1.35 3.285-4.196 3.285h-3.87c-.146 0-.244-.097-.244-.244V5.014c0-.147.098-.244.244-.244h3.87c2.26 0 3.383 1.333 3.383 2.878 0 1.187-.618 2.082-1.448 2.407 1.204.309 2.26 1.333 2.26 2.813M315.8 5.062l-3.334 5.806v5.041c0 .147-.098.244-.244.244h-1.74c-.146 0-.244-.097-.244-.244v-5.09l-3.334-5.757c-.097-.179-.032-.292.163-.292h1.838c.13 0 .227.048.292.162l2.163 3.806 2.163-3.806c.065-.114.163-.162.293-.162h1.821c.195 0 .26.113.163.292" fill="#000"/>
        <path d="M220.386 37.1c-.844.916-1.26 2.14-1.26 3.66 0 1.522.475 2.686 1.414 3.494.939.82 2.08 1.224 3.399 1.224.95 0 1.747-.139 2.39-.417a2.446 2.446 0 0 0 1.46-2.252v-.207h-3.69a1.788 1.788 0 1 1 0-3.576h5.103a2.697 2.697 0 0 1 2.698 2.697v.87c0 1.896-.8 3.712-2.222 4.964-.104.09-.21.182-.321.273-1.307 1.094-3.256 1.64-5.846 1.64-2.602 0-4.753-.82-6.464-2.46-1.711-1.64-2.567-3.778-2.567-6.404s.832-4.788 2.507-6.464c1.676-1.675 3.874-2.507 6.619-2.507 2.934 0 5.135.875 6.603 2.623.919 1.094.457 2.77-.887 3.251a2.046 2.046 0 0 1-2.297-.65 2.758 2.758 0 0 0-1.648-.988c-.847-.168-1.232-.18-1.771-.148-1.317.077-2.389.463-3.22 1.378" fill="#292929"/>
        <path d="m242.517 41.925-1.854-4.599-1.925 4.599h3.779zm-8.752 7.177c-1.646 0-2.713-1.736-1.97-3.205l6.223-12.292a2.982 2.982 0 0 1 5.325.004l6.166 12.227c.755 1.498-.334 3.266-2.011 3.266a2.252 2.252 0 0 1-2.007-1.23l-1.097-2.157h-7.545l-1.12 2.186a2.208 2.208 0 0 1-1.964 1.2zM267.842 49.102a2.287 2.287 0 0 1-2.287-2.287v-7.207a482.76 482.76 0 0 1-3.303 4.351 2.522 2.522 0 0 1-4.001-.006l-3.283-4.297v7.159a2.287 2.287 0 0 1-4.575 0V34.78a2.718 2.718 0 0 1 2.718-2.718h.064c.852 0 1.655.4 2.168 1.079l4.924 6.514c.371-.48 2.035-2.655 4.983-6.522a2.718 2.718 0 0 1 4.88 1.647v12.034a2.287 2.287 0 0 1-2.288 2.287" fill="#1E1E1E"/>
        <path d="M293.368 32.072H289.862v-3.568a1.887 1.887 0 0 0-3.774 0v3.568h-3.507a1.887 1.887 0 0 0 0 3.774h3.507v3.445a1.887 1.887 0 0 0 3.774 0v-3.445h3.506a1.887 1.887 0 0 0 0-3.774" fill="#F1CB15"/>
        <path d="M283.3 45.276h-7.688V42.53h7.296c1.05 0 1.901-.851 1.901-1.901v-.012c0-1.05-.851-1.901-1.9-1.901h-7.297v-2.852h5.544a2.379 2.379 0 0 1-.013-3.802h-8.085c-1.05 0-1.901.851-1.901 1.901v13.237c0 1.05.85 1.9 1.9 1.9H283.3c1.05 0 1.901-.85 1.901-1.9v-.024c0-1.05-.851-1.901-1.9-1.901" fill="#1E1E1E"/>
    </g>
</svg>
